<svg xmlns="http://www.w3.org/2000/svg" width="30" height="30" viewBox="0 0 30 30" fill="none">
    <g clip-path="url(#clip0_847_4765)">
        <path d="M15.5536 0.773228C15.8001 0.346186 16.3462 0.199871 16.7732 0.446424C17.2003 0.692976 17.3466 1.23903 17.1 1.66608C15.9996 3.57208 16.7357 5.83733 17.9299 7.66607C17.2136 7.55782 16.4906 7.50038 15.7662 7.49419C14.8412 5.67662 14.1719 3.16637 15.5536 0.773228Z" fill="white"/>
        <path d="M9.42763 18.4741C9.79519 19.0983 10.2065 19.6958 10.6583 20.262C8.47555 20.141 6.14747 20.6377 5.04726 22.5433C4.8007 22.9703 4.25465 23.1166 3.8276 22.8701C3.40056 22.6235 3.25425 22.0775 3.5008 21.6504C4.88248 19.2573 7.3911 18.5819 9.42763 18.4741Z" fill="white"/>
        <path d="M21.1256 17.9081C19.8667 20.0887 17.4177 20.6697 15.4119 20.7333C15.054 20.1019 14.6497 19.498 14.2023 18.9266C19.6912 19.2945 21.6183 15.9869 18.546 11.4031C19.2645 11.5049 19.9897 11.5531 20.7154 11.5473C21.6632 13.3163 22.3845 15.7276 21.1256 17.9081Z" fill="white"/>
        <path d="M18.8047 16.5689C18.7527 16.6633 18.6911 16.7521 18.6208 16.8338C18.5952 16.8676 18.5679 16.9 18.5389 16.9309L11.6611 12.96C11.7569 12.6751 11.9086 12.4122 12.1075 12.1867L18.9854 16.1577L18.9282 16.3103C18.8965 16.4007 18.8551 16.4874 18.8047 16.5689Z" fill="white"/>
        <path d="M24.8322 6.13031C24.6807 6.39222 24.4912 6.63023 24.2698 6.83658L17.5427 2.95269C17.5591 2.87967 17.5794 2.80889 17.6018 2.73423C17.6324 2.62654 17.6709 2.52123 17.7168 2.41912C17.7628 2.31391 17.815 2.21152 17.8731 2.11246L24.8322 6.13031Z" fill="white"/>
        <path d="M22.95 7.62144C22.5374 7.76587 22.1103 7.86497 21.6763 7.917L17.9106 5.74291C17.7852 5.45305 17.6821 5.154 17.6023 4.84838C17.5702 4.71645 17.5453 4.59895 17.522 4.48755L22.95 7.62144Z" fill="white"/>
        <path d="M12.7793 27.0074L5.82022 22.9896C5.88077 22.8832 5.94838 22.781 6.02264 22.6837C6.08766 22.5926 6.15969 22.5066 6.23807 22.4267C6.28277 22.3755 6.3311 22.3276 6.38268 22.2833L13.1098 26.1672C13.0417 26.4621 12.9304 26.7452 12.7793 27.0074Z" fill="white"/>
        <path d="M13.1296 24.6325L7.70153 21.4986C7.7997 21.4625 7.91779 21.4275 8.04809 21.3894C8.35365 21.3058 8.66481 21.2443 8.97917 21.2052L12.7487 23.3816C12.9206 23.7835 13.0484 24.2029 13.1296 24.6325Z" fill="white"/>
        <path d="M19.0443 14.6452L13.3959 11.3841C13.819 11.2429 14.2566 11.1498 14.7006 11.1064L18.6286 13.3742C18.7681 13.6769 18.8817 13.9908 18.9683 14.3126C19.0009 14.4217 19.0263 14.5328 19.0443 14.6452Z" fill="white"/>
        <path d="M17.2588 17.7382C17.1479 17.7786 17.035 17.8133 16.9205 17.8419C16.6022 17.9251 16.2777 17.9825 15.9502 18.0136L12.0222 15.7458C11.8378 15.3396 11.6997 14.9141 11.6104 14.4771L17.2588 17.7382Z" fill="white"/>
        <path d="M9.52686 11.2118C7.21483 15.2164 11.5831 19.9921 11.7702 20.1939C11.8069 20.2331 15.4327 24.1967 13.5521 27.4539C13.3056 27.8809 13.4519 28.427 13.8789 28.6735C14.306 28.9201 14.852 28.7738 15.0986 28.3467C17.6313 23.9598 13.2655 19.1798 13.0794 18.9791C13.0426 18.9393 9.42043 14.9675 11.0733 12.1047C12.7262 9.24178 17.9769 10.3928 18.0298 10.4047C18.2967 10.4656 24.6192 11.8565 27.152 7.46958C27.3986 7.04254 27.2522 6.49648 26.8252 6.24993C26.3982 6.00338 25.8521 6.14969 25.6055 6.57673C23.725 9.83396 18.4795 8.67568 18.4273 8.66355C18.1589 8.60244 11.8389 7.20726 9.52686 11.2118Z" fill="white"/>
    </g>
    <defs>
        <clipPath id="clip0_847_4765">
            <rect width="30" height="30" fill="white"/>
        </clipPath>
    </defs>
</svg>