<svg xmlns="http://www.w3.org/2000/svg" width="30" height="30" viewBox="0 0 30 30" fill="none">
    <g clip-path="url(#clip0_847_4752)">
        <path d="M18.8752 10.1313L17.6322 8.88831L14.3342 12.1864L12.3675 10.2198L11.1245 11.4627L14.3342 14.6724L18.8752 10.1313Z" fill="white"/>
        <path d="M14.9996 19.409C19.3774 19.409 22.9391 15.8474 22.9391 11.4695C22.9391 7.09167 19.3774 3.53003 14.9996 3.53003C10.6217 3.53003 7.06006 7.09167 7.06006 11.4695C7.06006 15.8474 10.6217 19.409 14.9996 19.409ZM14.9996 5.28785C18.4082 5.28785 21.1812 8.06093 21.1812 11.4695C21.1812 14.8781 18.4082 17.6512 14.9996 17.6512C11.591 17.6512 8.81788 14.8781 8.81788 11.4695C8.81788 8.06093 11.591 5.28785 14.9996 5.28785Z" fill="white"/>
        <path d="M3.36963 25.3456L8.27776 26.1533L11.4313 30L14.9999 23.819L18.5685 30L21.7221 26.1533L26.6302 25.3456L23.1232 19.2712C23.4011 18.826 23.6108 18.3397 23.7437 17.8255C24.7656 17.1691 25.5266 16.1825 25.9073 15.009C26.2879 13.8359 26.2503 12.5949 25.8074 11.4704C26.2523 10.3402 26.2889 9.09445 25.9046 7.91887C25.522 6.74863 24.7626 5.76806 23.745 5.11866C23.4424 3.9428 22.7407 2.91301 21.7386 2.18697C20.7414 1.4645 19.551 1.11669 18.3459 1.1887C17.4092 0.419124 16.2382 0 15.0043 0C14.9996 0 14.9949 0 14.9902 0C13.7582 0.00316408 12.5889 0.422639 11.6544 1.18911C10.4408 1.11674 9.24744 1.46427 8.25456 2.18609C7.26157 2.90797 6.56295 3.93623 6.25738 5.1131C5.2348 5.76964 4.47348 6.75654 4.09262 7.93083C3.71211 9.104 3.74985 10.3451 4.19305 11.4696C3.74744 12.5994 3.71076 13.8451 4.09561 15.0211C4.47846 16.1908 5.23784 17.1712 6.25515 17.8205C6.38804 18.3368 6.59799 18.825 6.87649 19.2717L3.36963 25.3456ZM22.1743 16.6909C21.9528 18.8766 20.0219 20.3976 17.7343 19.9141C16.268 21.5508 13.8141 21.6481 12.252 19.9081C10.0966 20.3641 8.06102 19.0237 7.82495 16.6824C5.80878 15.7859 4.94804 13.5031 6.13216 11.4695C5.02808 9.56841 5.67607 7.21352 7.82448 6.24894C8.07063 4.03661 9.91599 2.54527 12.2527 3.03025C13.7288 1.39307 16.1886 1.2896 17.7477 3.03101C19.9028 2.57498 21.9393 3.9152 22.1752 6.25674C24.1906 7.15217 25.051 9.43564 23.8687 11.4707C25.0043 13.4107 24.2572 15.755 22.1743 16.6909ZM16.4126 22.7502C17.1155 22.5572 17.7699 22.2205 18.3367 21.754C19.5711 21.838 20.9302 21.4006 21.8839 20.6404L23.8373 24.0238L20.7829 24.5264L18.8203 26.9204L16.4126 22.7502ZM6.16258 24.0237L8.11534 20.6414C9.12972 21.4443 10.4404 21.8215 11.6547 21.7504C12.2251 22.2185 12.8825 22.5561 13.5875 22.7497L11.1796 26.9203L9.21703 24.5264L6.16258 24.0237Z" fill="white"/>
    </g>
    <defs>
        <clipPath id="clip0_847_4752">
            <rect width="30" height="30" fill="white"/>
        </clipPath>
    </defs>
</svg>