<svg xmlns="http://www.w3.org/2000/svg" width="30" height="30" viewBox="0 0 30 30" fill="none">
    <g clip-path="url(#clip0_847_4732)">
        <path d="M11.1971 9.63748C11.5684 9.63646 11.9255 9.78011 12.1927 10.038C12.4599 10.2958 12.6161 10.6476 12.6283 11.0187H13.5658V8.89373H13.4377C13.1191 8.89325 12.8083 8.79541 12.5469 8.61333C12.2856 8.43125 12.0861 8.17362 11.9752 7.87498L11.8033 7.40935C11.5068 6.59933 10.9686 5.89995 10.2616 5.40585C9.55455 4.91176 8.71278 4.6468 7.8502 4.64685H0.340823C0.340412 4.92576 0.394993 5.20202 0.501443 5.45982C0.607893 5.71762 0.764124 5.9519 0.9612 6.14926C1.15827 6.34663 1.39233 6.5032 1.64997 6.61003C1.90761 6.71686 2.18379 6.77185 2.4627 6.77185H7.41582C7.4987 6.77185 7.57819 6.80477 7.63679 6.86338C7.6954 6.92198 7.72832 7.00147 7.72832 7.08435C7.72832 7.16723 7.6954 7.24672 7.63679 7.30532C7.57819 7.36393 7.4987 7.39685 7.41582 7.39685H2.55645C2.69067 7.83064 2.96031 8.21003 3.32586 8.4794C3.6914 8.74878 4.13362 8.89398 4.5877 8.89373H9.5377C9.62058 8.89373 9.70006 8.92665 9.75867 8.98525C9.81727 9.04386 9.8502 9.12335 9.8502 9.20623C9.8502 9.28911 9.81727 9.36859 9.75867 9.4272C9.70006 9.4858 9.62058 9.51873 9.5377 9.51873H4.6877C4.82045 9.95279 5.08928 10.3326 5.45449 10.6022C5.8197 10.8717 6.26192 11.0167 6.71582 11.0156H7.89082C8.32355 10.5789 8.83853 10.2322 9.40602 9.99565C9.97351 9.7591 10.5823 9.63737 11.1971 9.63748Z" fill="white"/>
        <path d="M22.1407 4.64685C21.2781 4.6468 20.4364 4.91176 19.7293 5.40585C19.0223 5.89995 18.4841 6.59933 18.1876 7.40935L18.0157 7.87498C17.9054 8.17213 17.7074 8.42872 17.4478 8.61067C17.1883 8.79263 16.8796 8.89135 16.5626 8.89373H16.4595V11.0187H17.397C17.4092 10.6476 17.5654 10.2958 17.8326 10.038C18.0998 9.78011 18.4569 9.63646 18.8282 9.63748C19.4438 9.63736 20.0532 9.75939 20.6213 9.99649C21.1894 10.2336 21.7048 10.581 22.1376 11.0187H23.3126C23.7616 11.0133 24.1972 10.8654 24.5567 10.5964C24.9161 10.3274 25.1808 9.95108 25.3126 9.52185H20.4626C20.3797 9.52185 20.3002 9.48893 20.2416 9.43032C20.183 9.37172 20.1501 9.29223 20.1501 9.20935C20.1501 9.12647 20.183 9.04699 20.2416 8.98838C20.3002 8.92977 20.3797 8.89685 20.4626 8.89685H25.4126C25.8667 8.89711 26.3089 8.75191 26.6744 8.48253C27.04 8.21315 27.3096 7.83376 27.4438 7.39998H22.5845C22.5016 7.39998 22.4221 7.36705 22.3635 7.30845C22.3049 7.24984 22.272 7.17036 22.272 7.08748C22.272 7.0046 22.3049 6.92511 22.3635 6.8665C22.4221 6.8079 22.5016 6.77498 22.5845 6.77498H27.5376C27.8165 6.77498 28.0927 6.71999 28.3503 6.61316C28.608 6.50633 28.842 6.34975 29.0391 6.15239C29.2362 5.95502 29.3924 5.72074 29.4989 5.46294C29.6053 5.20514 29.6599 4.92889 29.6595 4.64998L22.1407 4.64685Z" fill="white"/>
        <path d="M14.1753 5.2594V16.0844H15.8253V5.2594C15.2877 5.42436 14.7129 5.42436 14.1753 5.2594Z" fill="white"/>
        <path d="M14.1753 18.9531H15.8253V20.9906H14.1753V18.9531Z" fill="white"/>
        <path d="M14.1753 29.6031H15.8253V23.8562L14.1753 23.85V29.6031Z" fill="white"/>
        <path d="M15.0001 4.75935C16.2048 4.75935 17.1813 3.78277 17.1813 2.5781C17.1813 1.37343 16.2048 0.396851 15.0001 0.396851C13.7954 0.396851 12.8188 1.37343 12.8188 2.5781C12.8188 3.78277 13.7954 4.75935 15.0001 4.75935Z" fill="white"/>
        <path d="M18.8035 10.2624C18.6932 10.2556 18.5826 10.2714 18.4787 10.3089C18.3747 10.3463 18.2795 10.4047 18.199 10.4804C18.1184 10.5561 18.0542 10.6475 18.0104 10.7489C17.9665 10.8504 17.9438 10.9597 17.9438 11.0702C17.9438 11.1808 17.9665 11.2901 18.0104 11.3916C18.0542 11.493 18.1184 11.5844 18.199 11.6601C18.2795 11.7357 18.3747 11.7941 18.4787 11.8316C18.5826 11.8691 18.6932 11.8849 18.8035 11.8781C19.3406 11.8777 19.8626 12.0563 20.2868 12.3858C20.7111 12.7152 21.0134 13.1767 21.1461 13.6972C21.2787 14.2177 21.2341 14.7676 21.0192 15.2599C20.8044 15.7522 20.4316 16.1588 19.9597 16.4156C20.4881 16.6459 20.958 16.9919 21.3347 17.4281C21.9844 16.905 22.4556 16.1932 22.6834 15.3909C22.9113 14.5885 22.8844 13.7353 22.6066 12.9489C22.3288 12.1625 21.8138 11.4817 21.1325 11.0005C20.4513 10.5193 19.6375 10.2614 18.8035 10.2624Z" fill="white"/>
        <path d="M18.4032 16.7093H11.1969C10.5563 16.7093 9.94185 16.4548 9.48884 16.0018C9.03582 15.5488 8.78131 14.9343 8.78131 14.2937C8.78131 13.653 9.03582 13.0386 9.48884 12.5856C9.94185 12.1326 10.5563 11.8781 11.1969 11.8781C11.3072 11.8849 11.4178 11.8691 11.5218 11.8316C11.6257 11.7941 11.7209 11.7357 11.8015 11.6601C11.882 11.5844 11.9462 11.493 11.9901 11.3916C12.0339 11.2901 12.0566 11.1808 12.0566 11.0702C12.0566 10.9597 12.0339 10.8504 11.9901 10.7489C11.9462 10.6475 11.882 10.5561 11.8015 10.4804C11.7209 10.4047 11.6257 10.3463 11.5218 10.3089C11.4178 10.2714 11.3072 10.2556 11.1969 10.2624C10.6579 10.2474 10.1213 10.3406 9.61891 10.5365C9.11651 10.7325 8.65849 11.0271 8.27191 11.4031C7.88533 11.779 7.57805 12.2287 7.36822 12.7255C7.1584 13.2222 7.05029 13.756 7.05029 14.2952C7.05029 14.8345 7.1584 15.3683 7.36822 15.865C7.57805 16.3618 7.88533 16.8114 8.27191 17.1874C8.65849 17.5634 9.11651 17.858 9.61891 18.0539C10.1213 18.2498 10.6579 18.3431 11.1969 18.3281H18.4032C18.7977 18.3432 19.1735 18.4998 19.462 18.7692C19.7506 19.0386 19.9325 19.4028 19.9746 19.7953C20.0167 20.1878 19.9161 20.5824 19.6913 20.9068C19.4664 21.2313 19.1323 21.464 18.7501 21.5624C19.2574 21.8773 19.6852 22.3051 20.0001 22.8124C20.6284 22.4591 21.1221 21.9076 21.4039 21.244C21.6857 20.5805 21.7398 19.8423 21.5578 19.1448C21.3757 18.4472 20.9677 17.8296 20.3976 17.3884C19.8274 16.9473 19.1272 16.7073 18.4063 16.7062L18.4032 16.7093Z" fill="white"/>
        <path d="M19.1282 22.7C18.6973 22.2144 18.1298 21.8702 17.5001 21.7125C16.9532 21.5781 16.972 21.6156 11.6095 21.6156C11.2929 21.6144 10.9834 21.5221 10.7179 21.3496C10.4524 21.1771 10.2423 20.9317 10.1128 20.6428C9.98317 20.354 9.93959 20.0339 9.98723 19.7209C10.0349 19.4079 10.1717 19.1153 10.3814 18.8781C9.82951 18.7793 9.30013 18.5813 8.81887 18.2937C8.51026 18.7989 8.34798 19.3798 8.35012 19.9718C8.35012 22.7593 10.6876 23.2093 13.3001 23.2218C14.422 23.2218 12.3407 23.2218 16.8126 23.2406C17.2477 23.2526 17.6603 23.437 17.9594 23.7531C18.2586 24.0693 18.4199 24.4914 18.4079 24.9265C18.3959 25.3616 18.2115 25.7742 17.8954 26.0733C17.5792 26.3725 17.1571 26.5338 16.722 26.5218H16.4626V28.125H16.722C17.3478 28.1193 17.9588 27.9335 18.4819 27.5899C19.005 27.2463 19.4181 26.7594 19.6719 26.1872C19.9257 25.6151 20.0093 24.982 19.9129 24.3636C19.8165 23.7452 19.5441 23.1677 19.1282 22.7Z" fill="white"/>
        <path d="M12.0409 23.8062C11.4618 23.7728 10.8884 23.6743 10.3315 23.5125C10.106 24.0086 10.0083 24.5533 10.0475 25.0969C10.0867 25.6405 10.2614 26.1656 10.5556 26.6242C10.8499 27.0829 11.2545 27.4606 11.7322 27.7227C12.21 27.9849 12.7459 28.1232 13.2909 28.125H13.5502V26.5218H13.2909C12.9765 26.5213 12.6689 26.4307 12.4043 26.2609C12.1397 26.0911 11.9293 25.8491 11.7978 25.5636C11.6664 25.278 11.6194 24.9608 11.6625 24.6494C11.7056 24.338 11.8368 24.0454 12.0409 23.8062Z" fill="white"/>
    </g>
    <defs>
        <clipPath id="clip0_847_4732">
            <rect width="30" height="30" fill="white"/>
        </clipPath>
    </defs>
</svg>