<svg xmlns="http://www.w3.org/2000/svg" width="132" height="35" viewBox="0 0 132 35" fill="none">
    <path d="M42.0068 25.2666V10.277H50.4824V12.2658H44.3432V16.4114H48.6152V18.41H44.3432V23.1394H50.8538V25.2666H42.0068Z" fill="#092939"/>
    <path d="M55.0808 15.6792C55.0157 16.0684 54.97 16.4345 54.944 16.7775C54.9179 17.1205 54.9049 17.4734 54.9049 17.8361C54.9049 18.1923 54.9179 18.5452 54.944 18.8948C54.97 19.2444 55.0157 19.6138 55.0808 20.003C55.1525 20.3921 55.2405 20.7516 55.3448 21.0814C55.4491 21.4112 55.5892 21.7311 55.7651 22.0411C55.9476 22.3446 56.1496 22.6051 56.3712 22.8228C56.873 23.2977 57.5052 23.5352 58.2677 23.5352C60.3858 23.5352 61.4448 21.6289 61.4448 17.8164C61.4448 14.7096 60.7279 12.8363 59.2942 12.1965C58.9813 12.058 58.6327 11.9887 58.2482 11.9887C57.8702 11.9887 57.5182 12.058 57.1924 12.1965C56.873 12.335 56.5993 12.5197 56.3712 12.7506C56.1496 12.9748 55.9476 13.2486 55.7651 13.5718C55.5892 13.895 55.4491 14.2281 55.3448 14.5711C55.2405 14.9141 55.1525 15.2835 55.0808 15.6792ZM52.6662 19.3203C52.6011 18.819 52.5685 18.321 52.5685 17.8262C52.5685 17.3315 52.5978 16.8335 52.6565 16.3322C52.7151 15.8309 52.8129 15.323 52.9497 14.8085C53.0866 14.2875 53.256 13.796 53.4581 13.3343C53.6601 12.8726 53.9143 12.4373 54.2206 12.0283C54.5334 11.6127 54.8821 11.2566 55.2666 10.9597C56.0942 10.3199 57.1011 10 58.2873 10C59.9165 10 61.22 10.6794 62.1975 12.0382C63.2533 13.5157 63.7812 15.4451 63.7812 17.8262C63.7812 20.2536 63.2729 22.1665 62.2562 23.5648C61.5067 24.5872 60.5292 25.2106 59.3235 25.4348C59.3365 25.6921 59.3561 25.8471 59.3821 25.8998C59.4212 25.979 59.4701 26.0483 59.5288 26.1076C59.5874 26.167 59.6493 26.2033 59.7145 26.2165C59.7862 26.2297 59.884 26.2461 60.0078 26.2659C60.1642 26.2923 60.4738 26.3055 60.9365 26.3055H63.1849V28.0667H61.8065C60.4705 28.0667 59.6721 28.0436 59.4115 27.9974C59.1508 27.9578 58.9129 27.9117 58.6978 27.8589C58.4893 27.8061 58.3394 27.7435 58.2482 27.6709C58.1569 27.6049 58.0494 27.5159 57.9256 27.4038C57.8083 27.2916 57.7268 27.1663 57.6812 27.0278C57.6421 26.8893 57.5964 26.7211 57.5443 26.5232C57.4857 26.2923 57.4498 25.9361 57.4368 25.4546C56.2116 25.2633 55.1753 24.6301 54.3281 23.5549C53.4548 22.4468 52.9009 21.0352 52.6662 19.3203Z" fill="#092939"/>
    <path d="M66.6103 20.8341V10.277H68.9467V20.2701C68.9467 21.9389 69.4778 22.9745 70.5401 23.3768C70.8138 23.4824 71.1201 23.5352 71.459 23.5352C71.7979 23.5352 72.1042 23.489 72.3779 23.3966C72.6517 23.3043 72.8732 23.1889 73.0427 23.0503C73.2121 22.9118 73.3588 22.737 73.4826 22.526C73.6064 22.3083 73.6976 22.1104 73.7563 21.9323C73.815 21.7542 73.8638 21.5431 73.9029 21.2991C73.942 20.9825 73.9616 20.6395 73.9616 20.2701V10.277H76.3469V20.8341C76.3469 22.3446 75.8548 23.5418 74.8707 24.4256C74.0561 25.1578 72.9221 25.5239 71.4688 25.5239C69.2595 25.5239 67.7931 24.6763 67.0697 22.9811C66.7634 22.2819 66.6103 21.5662 66.6103 20.8341Z" fill="#092939"/>
    <path d="M79.4399 25.2666V10.277H81.7763V25.2666H79.4399Z" fill="#092939"/>
    <path d="M83.7744 12.2658V10.277H94.1073V12.2658H90.1091V25.2666H87.7727V12.2658H83.7744Z" fill="#092939"/>
    <path d="M96.3401 25.2666V10.277H104.816V12.2658H98.6765V16.4114H102.948V18.41H98.6765V23.1394H105.187V25.2666H96.3401Z" fill="#092939"/>
    <path d="M110.92 18.9344H113.686L112.308 14.0962L110.92 18.9344ZM106.716 25.2666L110.939 10.277H113.5L117.723 25.2666H115.465L114.243 20.9231H110.362L109.14 25.2666H106.716Z" fill="#092939"/>
    <path d="M122.165 15.1153V25.2666H119.878V10.277H123.045L125.89 20.6362H125.988L128.833 10.277H132V25.2666H129.703V15.1153H129.615L126.838 25.2666H125.04L122.263 15.1153H122.165Z" fill="#092939"/>
    <path d="M14.3582 27.3829C12.0261 26.6758 10.102 25.1817 8.8209 23.2497C7.54095 21.3206 6.90197 18.9545 7.13811 16.5029C7.37424 14.047 8.45077 11.8496 10.0733 10.2074C11.697 8.56261 13.8681 7.47188 16.292 7.23172C16.8343 7.17712 17.3743 7.1658 17.9071 7.19978C18.4434 7.23259 18.9796 7.30984 19.5107 7.43122L19.0935 9.31009C18.6683 9.21281 18.2345 9.15066 17.7946 9.12424C17.3536 9.09636 16.9124 9.10391 16.4797 9.14689H16.4759C14.5057 9.34174 12.742 10.2286 11.4221 11.5647C10.0997 12.9035 9.22345 14.6909 9.03236 16.6836C8.84127 18.6809 9.35974 20.6068 10.4021 22.1782C11.4422 23.7454 13.0048 24.959 14.9036 25.5346L14.3585 27.3829H14.3582ZM16.7448 12.4188C15.8212 12.519 14.961 12.8718 14.2448 13.4183C13.5287 13.9649 12.956 14.7054 12.606 15.5769C12.2548 16.4524 12.1546 17.3875 12.2924 18.2804C12.4301 19.1789 12.8036 20.0391 13.3976 20.7628C14.685 22.3341 16.3775 22.4924 17.98 22.6416C20.5436 22.8806 22.9302 23.1034 24.16 27.1683C24.2911 27.5999 24.3838 28.0273 24.4386 28.4487C24.6251 29.8655 24.3812 31.1787 23.7459 32.2543C23.1021 33.3448 22.07 34.1721 20.6911 34.5996H20.6874C20.3339 34.7096 19.9574 34.7933 19.5598 34.8467C15.6708 35.3718 11.8172 34.529 8.56984 32.6098C5.35719 30.7109 2.73359 27.7567 1.25078 24.0257C-0.378929 19.9203 -0.369174 15.5228 1.00719 11.6199C2.38211 7.71697 5.12479 4.30481 8.9546 2.17039C12.7818 0.0368462 17.096 -0.481803 21.0922 0.430334C25.087 1.34131 28.7648 3.68278 31.3198 7.27325C33.8737 10.8626 34.9034 15.1325 34.4923 19.2556C34.0797 23.381 32.227 27.3612 29.0147 30.3598L27.725 28.9415C30.5836 26.2719 32.2325 22.7346 32.5986 19.0668C32.965 15.3942 32.0489 11.5912 29.7762 8.39679C27.5023 5.20475 24.2311 3.1197 20.6747 2.30862C17.1198 1.49783 13.2796 1.96073 9.87218 3.85963C6.467 5.75621 4.02846 8.7926 2.80331 12.2678C1.57816 15.7433 1.5684 19.6575 3.01821 23.309C4.33461 26.6227 6.66985 29.2514 9.53218 30.9418C12.4261 32.6522 15.8573 33.4037 19.3136 32.9368C19.6057 32.8976 19.8783 32.838 20.1322 32.7585C21.0397 32.4765 21.7085 31.9515 22.1137 31.2658C22.5271 30.5663 22.682 29.6794 22.5524 28.6976C22.511 28.3877 22.441 28.0662 22.3412 27.7349C21.4836 24.9009 19.7124 24.7354 17.8073 24.5582C15.8221 24.3733 13.7272 24.1775 11.9346 21.9926C11.116 20.9957 10.6021 19.8103 10.4136 18.5755C10.2234 17.3369 10.3582 16.0499 10.8397 14.852C11.3211 13.6515 12.1099 12.6319 13.0975 11.8792C14.0836 11.1274 15.2686 10.6407 16.5437 10.5027L16.7451 12.4194L16.7448 12.4188ZM23.6134 6.05126C23.0619 8.32884 23.0533 8.35875 23.0482 8.37298L23.0444 8.37908C23.0407 8.3904 23.0482 8.37153 22.6496 10.0375L28.6308 18.6217C28.6359 18.6344 28.6758 18.7129 28.6758 18.7216C29.0959 19.6288 28.916 20.5246 28.1358 21.4101C27.5497 22.0742 26.5773 22.7398 25.2196 23.4065L24.1657 23.9089L23.7284 23.1411C23.2209 22.249 22.7647 21.5547 22.3621 21.0587C22.136 20.779 21.9449 20.5795 21.7909 20.4605C20.6945 20.6402 19.742 20.5136 18.9323 20.0771C18.0308 19.5925 17.3559 18.7538 16.9072 17.5606L18.6898 16.8738C18.9673 17.6152 19.3472 18.1138 19.8272 18.3731C20.3135 18.6336 20.9522 18.6777 21.7421 18.5058L22.0147 18.4466L22.2835 18.5502C22.7747 18.7425 23.2909 19.1711 23.8309 19.8355C24.1671 20.2508 24.5298 20.7732 24.9174 21.4045C25.7687 20.9489 26.3701 20.5229 26.7184 20.1268C26.9173 19.9029 27.0011 19.7205 26.9701 19.584L20.5961 10.4383L20.6986 10.0117C21.1923 7.94929 21.2259 7.80903 21.2385 7.76982C21.2411 7.75705 21.2486 7.73411 21.765 5.59998L23.614 6.05155L23.6134 6.05126Z" fill="#092939"/>
</svg>