<svg xmlns="http://www.w3.org/2000/svg" width="15" height="16" viewBox="0 0 15 16" fill="none">
    <g clip-path="url(#clip0_847_5514)">
        <path d="M8.62605 6.99205V3.96281L9.74156 4.74283L11.067 2.99437L7.5 0.5L3.93305 2.99437L5.25844 4.74283L6.37395 3.96281V6.99205C4.43367 7.47222 3 9.16429 3 11.1778C3 13.5648 5.0148 15.5 7.5 15.5C9.9852 15.5 12 13.5648 12 11.1778C12 9.16429 10.5663 7.47222 8.62605 6.99205ZM7.5 13.3389C6.25723 13.3389 5.25 12.3715 5.25 11.1778C5.25 9.98415 6.25723 9.01673 7.5 9.01673C8.74277 9.01673 9.75 9.98415 9.75 11.1778C9.75 12.3715 8.74277 13.3389 7.5 13.3389Z" fill="#216A8F"/>
    </g>
    <defs>
        <clipPath id="clip0_847_5514">
            <rect width="15" height="15" fill="white" transform="translate(0 0.5)"/>
        </clipPath>
    </defs>
</svg>