<svg xmlns="http://www.w3.org/2000/svg" width="15" height="16" viewBox="0 0 15 16" fill="none">
    <g clip-path="url(#clip0_847_5394)">
        <path d="M12 4.78571C12 2.41886 9.9852 0.5 7.5 0.5C5.0148 0.5 3 2.41886 3 4.78571C3 6.78225 4.43367 8.46004 6.37395 8.93616V11.2133H4.84887V13.3581H6.37395V15.5H8.62605V13.3581H10.1511V11.2133H8.62605V8.93616C10.5663 8.46004 12 6.78225 12 4.78571ZM7.5 6.92857C6.25723 6.92857 5.25 5.96931 5.25 4.78571C5.25 3.60212 6.25723 2.64286 7.5 2.64286C8.74277 2.64286 9.75 3.60212 9.75 4.78571C9.75 5.96931 8.74277 6.92857 7.5 6.92857Z" fill="#216A8F"/>
    </g>
    <defs>
        <clipPath id="clip0_847_5394">
            <rect width="15" height="15" fill="white" transform="translate(0 0.5)"/>
        </clipPath>
    </defs>
</svg>